<?xml version="1.0" encoding="UTF-8" standalone="no"?>
<!DOCTYPE svg PUBLIC "-//W3C//DTD SVG 1.1//EN" "http://www.w3.org/Graphics/SVG/1.1/DTD/svg11.dtd">
<svg width="100%" height="100%" viewBox="0 0 48 48" version="1.1" xmlns="http://www.w3.org/2000/svg" xmlns:xlink="http://www.w3.org/1999/xlink" xml:space="preserve" xmlns:serif="http://www.serif.com/" style="fill-rule:evenodd;clip-rule:evenodd;stroke-linejoin:round;stroke-miterlimit:2;">
    <g>
        <path id="polygon2989" d="M45.162,-0L41.306,43.195L23.974,48L6.69,43.202L2.838,-0L45.162,-0Z" style="fill:rgb(38,77,228);fill-rule:nonzero;"/>
        <path id="polygon2991" d="M38.005,40.444L41.3,3.532L24,3.532L24,44.327L38.005,40.444Z" style="fill:rgb(41,101,241);fill-rule:nonzero;"/>
        <path id="polygon2993" d="M11.668,19.555L12.143,24.854L24,24.854L24,19.555L11.668,19.555Z" style="fill:rgb(235,235,235);fill-rule:nonzero;"/>
        <path id="polygon2995" d="M24,8.831L10.714,8.831L11.195,14.13L24,14.13L24,8.831Z" style="fill:rgb(235,235,235);fill-rule:nonzero;"/>
        <path id="polygon2997" d="M24,38.829L24,33.316L23.977,33.322L18.076,31.729L17.699,27.503L12.38,27.503L13.122,35.823L23.976,38.836L24,38.829Z" style="fill:rgb(235,235,235);fill-rule:nonzero;"/>
        <path id="polygon3005" d="M30.506,24.854L29.891,31.726L23.982,33.321L23.982,38.833L34.844,35.823L34.924,34.927L36.169,20.978L36.298,19.555L37.255,8.831L23.982,8.831L23.982,14.13L31.448,14.13L30.966,19.555L23.982,19.555L23.982,24.854L30.506,24.854Z" style="fill:white;fill-rule:nonzero;"/>
    </g>
</svg>
