<?xml version="1.0" encoding="UTF-8" standalone="no"?>
<!DOCTYPE svg PUBLIC "-//W3C//DTD SVG 1.1//EN" "http://www.w3.org/Graphics/SVG/1.1/DTD/svg11.dtd">
<svg width="100%" height="100%" viewBox="0 0 48 48" version="1.1" xmlns="http://www.w3.org/2000/svg" xmlns:xlink="http://www.w3.org/1999/xlink" xml:space="preserve" xmlns:serif="http://www.serif.com/" style="fill-rule:evenodd;clip-rule:evenodd;stroke-linejoin:round;stroke-miterlimit:2;">
    <g>
        <path d="M46.3,5.32L36.404,0.554C35.258,0.003 33.889,0.236 32.99,1.135L0.592,30.674C-0.279,31.468 -0.278,32.84 0.594,33.634L3.241,36.039C3.954,36.688 5.028,36.736 5.796,36.153L44.811,6.556C46.12,5.563 48,6.496 48,8.139L48,8.024C48,6.871 47.339,5.82 46.3,5.32Z" style="fill:rgb(0,101,169);fill-rule:nonzero;"/>
        <g>
            <path d="M46.3,42.98L36.404,47.745C35.258,48.297 33.889,48.064 32.99,47.165L0.592,17.626C-0.279,16.831 -0.278,15.459 0.594,14.666L3.241,12.26C3.954,11.611 5.028,11.564 5.796,12.146L44.811,41.744C46.12,42.737 48,41.803 48,40.16L48,40.275C48,41.428 47.339,42.48 46.3,42.98Z" style="fill:rgb(0,122,204);fill-rule:nonzero;"/>
        </g>
        <g>
            <path d="M36.404,47.746C35.258,48.297 33.889,48.064 32.99,47.165C34.098,48.273 35.992,47.488 35.992,45.921L35.992,2.378C35.992,0.811 34.098,0.027 32.99,1.135C33.889,0.235 35.258,0.003 36.404,0.554L46.299,5.312C47.339,5.812 48,6.864 48,8.017L48,40.282C48,41.436 47.339,42.488 46.299,42.988L36.404,47.746Z" style="fill:rgb(31,156,240);fill-rule:nonzero;"/>
        </g>
        <g opacity="0.25">
            <path d="M33.999,47.838C34.756,48.132 35.618,48.113 36.382,47.746L46.271,42.988C47.31,42.488 47.971,41.436 47.971,40.282L47.971,8.018C47.971,6.864 47.31,5.812 46.271,5.312L36.382,0.554C35.38,0.071 34.207,0.19 33.328,0.829C33.202,0.92 33.082,1.022 32.97,1.135L14.039,18.406L5.793,12.146C5.025,11.564 3.952,11.612 3.239,12.26L0.594,14.666C-0.278,15.459 -0.279,16.831 0.592,17.626L7.743,24.15L0.592,30.674C-0.279,31.469 -0.278,32.84 0.594,33.634L3.239,36.039C3.952,36.688 5.025,36.736 5.793,36.153L14.039,29.894L32.97,47.165C33.27,47.465 33.621,47.69 33.999,47.838ZM35.97,13.246L21.606,24.15L35.97,35.053L35.97,13.246Z" style="fill:url(#_Linear1);"/>
        </g>
    </g>
    <defs>
        <linearGradient id="_Linear1" x1="0" y1="0" x2="1" y2="0" gradientUnits="userSpaceOnUse" gradientTransform="matrix(2.92592e-15,47.784,-47.784,2.92592e-15,23.955,0.25778)"><stop offset="0" style="stop-color:white;stop-opacity:1"/><stop offset="1" style="stop-color:white;stop-opacity:0"/></linearGradient>
    </defs>
</svg>
