<svg class="brands" width="100%" height="100%" viewBox="0 0 48 48" version="1.1" xmlns="http://www.w3.org/2000/svg" xmlns:xlink="http://www.w3.org/1999/xlink" xml:space="preserve"
    style="fill-rule:evenodd;clip-rule:evenodd;stroke-linejoin:round;stroke-miterlimit:2;">
    <g>
        <path
            d="M43.581,24.167C36.871,24.298 38.269,28.546 33.539,29.621C28.735,30.712 27.977,17.888 23.174,17.888C18.37,17.888 17.306,30.345 11.291,38.898L11.12,39.14L24.015,46.584L43.581,35.288L43.581,24.167Z"
            style="fill:rgb(54,162,235);fill-rule:nonzero;" />
        <path
            d="M43.581,23.78C41.335,20.897 39.811,17.583 36.533,17.583C30.732,17.583 32.258,27.046 25.847,27.046C19.435,27.046 18.761,16.867 11.498,26.436C9.183,29.485 7.32,32.884 5.857,36.101L24.015,46.584L43.581,35.289L43.581,23.78Z"
            style="fill:rgb(255,206,86);fill-rule:nonzero;" />
        <path
            d="M4.449,27.7C6.65,21.604 7.6,16.667 11.803,16.667C18.214,16.667 19.74,34.678 25.237,32.846C30.732,31.014 30.121,21.245 38.67,21.245C40.298,21.245 41.959,22.242 43.582,23.855L43.582,35.288L24.016,46.584L4.449,35.288L4.449,27.7L4.449,27.7Z"
            style="fill:rgb(254,97,132);fill-opacity:0.8;fill-rule:nonzero;" />
        <path d="M24,48L3.212,36L3.212,12L24,0L44.788,12L44.788,36L24,48ZM5.655,34.59L24,45.181L42.345,34.59L42.345,13.41L24,2.82L5.655,13.41L5.655,34.59Z"
            style="fill:rgb(231,233,237);fill-rule:nonzero;" />
    </g>
</svg>