<svg class="brands" width="100%" height="100%" viewBox="0 0 48 48" version="1.1" xmlns="http://www.w3.org/2000/svg" xmlns:xlink="http://www.w3.org/1999/xlink" xml:space="preserve"
    style="fill-rule:evenodd;clip-rule:evenodd;stroke-linejoin:round;stroke-miterlimit:2;">
    <g>
        <path d="M24,24C24,19.611 27.611,16 32,16C36.389,16 40,19.611 40,24C40,28.389 36.389,32 32,32C27.611,32 24,28.389 24,24Z" style="fill:rgb(26,188,254);fill-rule:nonzero;" />
        <path d="M8,40C8,35.611 11.611,32 16,32L24,32L24,40C24,44.389 20.389,48 16,48C11.611,48 8,44.389 8,40Z" style="fill:rgb(10,207,131);fill-rule:nonzero;" />
        <path d="M24,0L24,16L32,16C36.389,16 40,12.389 40,8C40,3.611 36.389,0 32,0L24,0Z" style="fill:rgb(255,114,98);fill-rule:nonzero;" />
        <path d="M8,8C8,12.389 11.611,16 16,16L24,16L24,0L16,0C11.611,0 8,3.611 8,8Z" style="fill:rgb(242,78,30);fill-rule:nonzero;" />
        <path d="M8,24C8,28.389 11.611,32 16,32L24,32L24,16L16,16C11.611,16 8,19.611 8,24Z" style="fill:rgb(162,89,255);fill-rule:nonzero;" />
    </g>
</svg>