<svg class="brands" width="100%" height="100%" viewBox="0 0 48 48" version="1.1" xmlns="http://www.w3.org/2000/svg" xmlns:xlink="http://www.w3.org/1999/xlink" xml:space="preserve"
    style="fill-rule:evenodd;clip-rule:evenodd;stroke-linejoin:round;stroke-miterlimit:2;">
    <g>
        <g id="Surfaces">
            <g id="Drawing_Surface">
                <g id="Outline_no_shadow">
                    <path
                        d="M8.718,0L40.513,0C45.333,0 49.231,3.897 49.231,8.718L49.231,39.282C49.231,44.103 45.333,48 40.513,48L8.718,48C3.897,48 0,44.103 0,39.282L0,8.718C0,3.897 3.897,0 8.718,0Z"
                        style="fill:rgb(51,0,0);fill-rule:nonzero;" />
                </g>
            </g>
        </g>
        <g id="Outlined_Mnemonics_Logos">
            <g id="Ai">
                <path
                    d="M23.856,28.8L16.226,28.8L14.667,33.621C14.626,33.805 14.462,33.928 14.277,33.908L10.421,33.908C10.195,33.908 10.133,33.785 10.195,33.538L16.8,14.523C16.862,14.318 16.923,14.092 17.005,13.846C17.087,13.415 17.128,12.964 17.128,12.513C17.108,12.41 17.19,12.308 17.292,12.287L22.605,12.287C22.769,12.287 22.851,12.349 22.872,12.451L30.359,33.579C30.421,33.805 30.359,33.908 30.154,33.908L25.867,33.908C25.723,33.928 25.579,33.826 25.538,33.682L23.856,28.8ZM17.415,24.636L22.626,24.636C22.503,24.205 22.338,23.692 22.154,23.159C21.969,22.605 21.785,22.01 21.6,21.395C21.395,20.759 21.21,20.144 21.005,19.508C20.8,18.872 20.615,18.277 20.451,17.682C20.287,17.108 20.144,16.574 20,16.082L19.959,16.082C19.774,16.964 19.549,17.846 19.262,18.728C18.954,19.713 18.646,20.738 18.318,21.764C18.031,22.81 17.723,23.774 17.415,24.636Z"
                    style="fill:rgb(255,154,0);fill-rule:nonzero;" />
                <path
                    d="M34.831,15.795C34.154,15.815 33.497,15.549 33.005,15.077C32.533,14.564 32.287,13.887 32.308,13.19C32.287,12.492 32.554,11.836 33.046,11.364C33.538,10.892 34.195,10.646 34.872,10.646C35.672,10.646 36.287,10.892 36.738,11.364C37.19,11.856 37.436,12.513 37.415,13.19C37.436,13.887 37.19,14.564 36.697,15.077C36.226,15.569 35.528,15.836 34.831,15.795ZM32.533,33.6L32.533,17.805C32.533,17.6 32.615,17.518 32.8,17.518L36.862,17.518C37.046,17.518 37.128,17.621 37.128,17.805L37.128,33.6C37.128,33.826 37.046,33.928 36.862,33.928L32.841,33.928C32.636,33.928 32.533,33.805 32.533,33.6Z"
                    style="fill:rgb(255,154,0);fill-rule:nonzero;" />
            </g>
        </g>
    </g>

</svg>