<svg class="brands" width="100%" height="100%" viewBox="0 0 48 48" version="1.1" xmlns="http://www.w3.org/2000/svg" xmlns:xlink="http://www.w3.org/1999/xlink" xml:space="preserve"
    style="fill-rule:evenodd;clip-rule:evenodd;stroke-linejoin:round;stroke-miterlimit:2;">
    <g>
        <rect x="0" y="0" width="48" height="48" style="fill:rgb(247,223,30);" />
        <path
            d="M32.244,37.5C33.211,39.079 34.469,40.239 36.693,40.239C38.562,40.239 39.756,39.305 39.756,38.014C39.756,36.468 38.53,35.92 36.472,35.02L35.345,34.536C32.09,33.15 29.928,31.413 29.928,27.74C29.928,24.357 32.505,21.782 36.533,21.782C39.401,21.782 41.463,22.78 42.949,25.394L39.436,27.649C38.663,26.262 37.829,25.716 36.533,25.716C35.212,25.716 34.375,26.554 34.375,27.649C34.375,29.002 35.213,29.55 37.148,30.388L38.276,30.871C42.108,32.514 44.272,34.19 44.272,37.957C44.272,42.018 41.082,44.242 36.798,44.242C32.609,44.242 29.902,42.246 28.578,39.63L32.244,37.5ZM16.31,37.891C17.019,39.148 17.663,40.211 19.213,40.211C20.695,40.211 21.63,39.631 21.63,37.377L21.63,22.04L26.14,22.04L26.14,37.438C26.14,42.108 23.402,44.234 19.405,44.234C15.794,44.234 13.702,42.365 12.638,40.114L16.31,37.891Z"
            style="fill-rule:nonzero;" />
    </g>
</svg>