<?xml version="1.0" encoding="UTF-8" standalone="no"?>
<!DOCTYPE svg PUBLIC "-//W3C//DTD SVG 1.1//EN" "http://www.w3.org/Graphics/SVG/1.1/DTD/svg11.dtd">

<svg width="100%" height="100%" viewBox="0 0 24 24" version="1.1" xmlns="http://www.w3.org/2000/svg" xmlns:xlink="http://www.w3.org/1999/xlink" xml:space="preserve"
	 style="fill-rule:evenodd;clip-rule:evenodd;stroke-linejoin:round;stroke-miterlimit:2;">
	<path d="M18.287,0.528C16.398,0.218 11.779,-0.001 9.869,0C7.93,0 4.534,0.223 2.671,0.527C1.093,0.788 0,2.331 0,4.066L0,9.431C0,11.165 1.093,12.709 2.671,12.969C4.219,13.222 4.421,13.252 6.302,13.407C6.382,13.414 6.458,13.445 6.514,13.507L9.853,17.235C9.965,17.36 10.117,17.43 10.276,17.43C10.604,17.43 10.874,17.129 10.874,16.763L10.874,13.238C12.009,13.23 17.585,13.083 18.287,12.968C19.866,12.71 20.959,11.164 20.959,9.43L20.959,4.066C20.959,2.332 19.866,0.787 18.287,0.528Z"
		  style="fill:#56696c;" />
	<path d="M14.107,11.041C15.333,10.84 16.571,10.739 17.811,10.74C19.07,10.74 20.306,10.843 21.516,11.04C22.54,11.209 23.25,12.211 23.25,13.337L23.25,16.82C23.25,17.946 22.54,18.948 21.516,19.117C20.511,19.282 19.487,19.381 18.448,19.41C18.397,19.411 18.347,19.434 18.311,19.474L16.143,21.895C16.07,21.976 15.972,22.021 15.869,22.021C15.656,22.021 15.48,21.826 15.48,21.588L15.48,19.3C15.021,19.253 14.563,19.191 14.107,19.117C13.082,18.949 12.372,17.946 12.372,16.82L12.372,13.338C12.372,12.212 13.082,11.209 14.107,11.041Z"
		  style="fill:#148f87;" />
</svg>