<?xml version="1.0" encoding="UTF-8" standalone="no"?>
<!DOCTYPE svg PUBLIC "-//W3C//DTD SVG 1.1//EN" "http://www.w3.org/Graphics/SVG/1.1/DTD/svg11.dtd"><svg width="100%" height="100%" viewBox="0 0 24 24" version="1.1"
	 xmlns="http://www.w3.org/2000/svg" xmlns:xlink="http://www.w3.org/1999/xlink" xml:space="preserve" xmlns:serif="http://www.serif.com/"
	 style="fill-rule:evenodd;clip-rule:evenodd;stroke-linejoin:round;stroke-miterlimit:2;">
	<rect id="Artboard1" x="0" y="0" width="23.25" height="24" style="fill:none;" />
	<clipPath id="_clip1">
		<rect x="0" y="0" width="23.25" height="24" />
	</clipPath>
	<g clip-path="url(#_clip1)">
		<path
			  d="M19.451,0.641C16.842,0.213 14.208,-0.001 11.57,0C8.893,0 6.262,0.219 3.689,0.64C1.51,0.999 0,3.131 0,5.526L0,12.936C0,15.331 1.51,17.463 3.689,17.822C5.827,18.172 8.004,18.382 10.215,18.444C10.325,18.446 10.43,18.496 10.508,18.582L15.118,23.73C15.274,23.903 15.483,24 15.702,24C16.155,24 16.529,23.584 16.529,23.078L16.529,18.21C17.506,18.11 18.48,17.98 19.451,17.821C21.631,17.464 23.14,15.33 23.14,12.935L23.14,5.528C23.14,3.132 21.631,0.998 19.451,0.641Z" />
	</g>
</svg>